<svg height="512pt" viewBox="-51 0 511 512" width="512pt" xmlns="http://www.w3.org/2000/svg"><path fill="#cc33ff" d="m401.710938 398.398438c4.121093 0 7.460937-3.339844 7.460937-7.460938v-332.660156c0-32.132813-26.144531-58.277344-58.28125-58.277344h-292.113281c-32.132813 0-58.277344 26.144531-58.277344 58.277344v395.441406c0 32.136719 26.144531 58.28125 58.277344 58.28125h292.113281c32.136719 0 58.28125-26.144531 58.28125-58.28125v-32.9375c0-4.121094-3.339844-7.460938-7.460937-7.460938-4.117188 0-7.460938 3.339844-7.460938 7.460938v32.9375c0 23.910156-19.449219 43.359375-43.359375 43.359375h-292.113281c-23.90625 0-43.355469-19.449219-43.355469-43.359375v-395.441406c0-23.90625 19.449219-43.355469 43.355469-43.355469h292.113281c23.910156 0 43.359375 19.449219 43.359375 43.355469v332.660156c0 4.121094 3.34375 7.460938 7.460938 7.460938zm0 0"/><path fill="#cc33ff" d="m330.058594 212.453125h-250.449219c-16.195313 0-29.375 13.175781-29.375 29.375v191.058594c0 16.199219 13.179687 29.378906 29.375 29.378906h250.449219c16.199218 0 29.378906-13.179687 29.378906-29.378906v-191.054688c0-16.203125-13.179688-29.378906-29.378906-29.378906zm-264.90625 93.21875h58.652344v63.375h-58.652344zm73.574218 0h58.648438v63.375h-58.648438zm58.648438-14.921875h-58.648438v-63.375h58.648438zm14.921875-63.378906h58.648437v63.378906h-58.648437zm-14.921875 156.597656v63.375h-58.648438v-63.375zm14.921875 0h58.648437v63.375h-58.648437zm0-14.921875v-63.375h58.648437v63.375zm73.570313-63.375h58.648437v63.375h-58.648437zm58.648437-63.839844v48.917969h-58.648437v-63.375h44.195312c7.96875-.003906 14.453125 6.484375 14.453125 14.457031zm-264.90625-14.460937h44.195313v63.378906h-58.652344v-48.917969c0-7.972656 6.488281-14.460937 14.457031-14.460937zm-14.457031 205.515625v-48.917969h58.652344v63.375h-44.195313c-7.96875 0-14.457031-6.484375-14.457031-14.457031zm264.90625 14.457031h-44.191406v-63.375h58.648437v48.917969c0 7.972656-6.484375 14.457031-14.457031 14.457031zm0 0"/><path fill="#cc33ff" d="m359.4375 78.863281c0-16.0625-13.066406-29.128906-29.128906-29.128906h-179.574219c-4.121094 0-7.460937 3.339844-7.460937 7.460937 0 4.121094 3.339843 7.460938 7.460937 7.460938h179.574219c7.835937 0 14.207031 6.371094 14.207031 14.207031v71.917969c0 7.832031-6.371094 14.207031-14.207031 14.207031h-250.945313c-7.835937 0-14.210937-6.375-14.210937-14.207031v-71.917969c0-7.835937 6.375-14.207031 14.210937-14.207031h41.527344c4.121094 0 7.460937-3.339844 7.460937-7.460938 0-4.121093-3.339843-7.460937-7.460937-7.460937h-41.527344c-16.0625 0-29.128906 13.066406-29.128906 29.128906v71.917969c0 16.058594 13.066406 29.128906 29.128906 29.128906h250.945313c16.0625 0 29.128906-13.066406 29.128906-29.128906zm0 0"/><path fill="#cc33ff" d="m315.894531 148.292969c4.121094 0 7.460938-3.339844 7.460938-7.460938 0-4.121093-3.339844-7.460937-7.460938-7.460937h-47.960937c-4.121094 0-7.460938 3.339844-7.460938 7.460937 0 4.121094 3.339844 7.460938 7.460938 7.460938zm0 0"/></svg>